HIERARCHY
ROOT Hips
{
     OFFSET 1.88212 96.90440 -13.34250
     CHANNELS 6 Xposition Yposition Zposition Zrotation Xrotation Yrotation
     JOINT Spine
     {
          OFFSET 0.00000 11.89050 0.00000
          CHANNELS 3 Zrotation Xrotation Yrotation
          JOINT Spine1
          {
               OFFSET -0.00000 25.65740 0.12766
               CHANNELS 3 Zrotation Xrotation Yrotation
               JOINT HEad
               {
                    OFFSET 0.00000 8.73416 0.01134
                    CHANNELS 3 Zrotation Xrotation Yrotation
                    End Site
                    {
                         OFFSET -0.29000 12.77420 2.51395
                    }
               }
               JOINT LeftShoulder1
               {
                    OFFSET 8.99000 -0.36225 -0.22000
                    CHANNELS 3 Zrotation Xrotation Yrotation
                    JOINT LeftArm
                    {
                         OFFSET 10.28270 -0.00338 0.32212
                         CHANNELS 3 Zrotation Xrotation Yrotation
                         JOINT LeftForeArm
                         {
                              OFFSET 32.76690 0.09914 -1.42434
                              CHANNELS 3 Zrotation Xrotation Yrotation
                              JOINT LeftHand
                              {
                                   OFFSET 27.56430 0.08536 1.02216
                                   CHANNELS 3 Zrotation Xrotation Yrotation
                                   End Site
                                   {
                                        OFFSET 16.74430 -0.60000 1.50291
                                   }
                              }
                         }
                    }
               }
               JOINT RightShoulder
               {
                    OFFSET -8.99000 -0.36225 -0.22000
                    CHANNELS 3 Zrotation Xrotation Yrotation
                    JOINT RightArm
                    {
                         OFFSET -10.28270 -0.00338 0.32212
                         CHANNELS 3 Zrotation Xrotation Yrotation
                         JOINT RightForeArm
                         {
                              OFFSET -32.89710 0.09914 -1.42434
                              CHANNELS 3 Zrotation Xrotation Yrotation
                              JOINT RightHand
                              {
                                   OFFSET -27.49210 0.08536 1.02216
                                   CHANNELS 3 Zrotation Xrotation Yrotation
                                   End Site
                                   {
                                        OFFSET -16.63120 -0.60000 1.50291
                                   }
                              }
                         }
                    }
               }
          }
     }
     JOINT LeftUpLeg
     {
          OFFSET 8.94580 -8.66707 0.10165
          CHANNELS 3 Zrotation Xrotation Yrotation
          JOINT LeftLeg
          {
               OFFSET 0.00000 -44.42270 1.37270
               CHANNELS 3 Zrotation Xrotation Yrotation
               JOINT LeftFoot
               {
                    OFFSET -0.25355 -42.09240 -1.46059
                    CHANNELS 3 Zrotation Xrotation Yrotation
                    JOINT LeftToes
                    {
                         OFFSET -0.04000 -4.41509 8.49910
                         CHANNELS 3 Zrotation Xrotation Yrotation
                         End Site
                         {
                              OFFSET 0.08000 -0.04745 9.77979
                         }
                    }
               }
          }
     }
     JOINT RightUpLeg
     {
          OFFSET -8.94580 -8.66707 0.10165
          CHANNELS 3 Zrotation Xrotation Yrotation
          JOINT RightLeg
          {
               OFFSET 0.00000 -44.42270 1.37270
               CHANNELS 3 Zrotation Xrotation Yrotation
               JOINT RightFoot
               {
                    OFFSET 0.25355 -42.09240 -1.46059
                    CHANNELS 3 Zrotation Xrotation Yrotation
                    JOINT RightToes
                    {
                         OFFSET 0.04000 -4.41509 8.49910
                         CHANNELS 3 Zrotation Xrotation Yrotation
                         End Site
                         {
                              OFFSET -0.08000 -0.13745 9.77979
                         }
                    }
               }
          }
     }
}
MOTION
Frames: 19
Frame Time: 0.01667
54.04485 91.94191 1.42215 16.70660 44.75463 119.19953 -20.71834 35.43490 7.99557 -0.05146 0.08770 0.03720 -12.24088 13.32774 8.78289 2.19604 3.86575 6.03922 -55.37809 -57.75189 -24.15230 -22.27108 20.25765 -77.07430 6.95407 5.08540 -30.36490 12.76019 6.15780 8.55278 63.67809 25.43600 60.67953 0.53662 26.72164 98.70845 18.97574 12.52960 6.06948 30.03439 -24.91052 33.82111 -98.75395 71.77535 119.37981 -30.00905 -0.01493 0.00464 -5.26959 9.31185 -1.33210 -45.26495 14.87284 28.22586 42.28573 18.65131 -42.15669 47.99803 -0.00730 -0.01475 -73.66399 -36.83178 19.07623 
53.54572 92.45700 2.21262 14.44845 43.80280 122.39413 -22.55857 36.43700 8.48009 -0.05652 0.08051 0.02962 -11.12061 11.91084 7.78714 3.15788 2.31842 5.20316 -56.98340 -60.92293 -26.91661 -23.70269 24.64145 -77.60600 11.07972 3.67436 -22.07863 14.00013 4.52911 7.75116 64.37086 24.58007 60.76493 0.32231 26.68238 99.32531 19.20069 12.34964 5.46475 23.94253 -26.10445 37.98490 -81.14803 80.16708 103.71787 -30.00960 -0.00415 0.00651 -12.42237 3.73494 0.02927 -44.40881 14.48020 25.61745 42.06303 17.99947 -42.33797 50.63056 -0.01243 -0.01731 -76.14622 -36.11587 19.72380 
53.07029 92.98882 3.00220 12.44959 42.95009 125.20681 -24.13266 37.22562 8.87110 0.01090 -0.00809 -0.00797 -10.45037 10.99152 7.07221 -6.18969 8.02499 4.28592 -63.38444 -68.04362 -45.09721 -25.11279 28.49669 -78.35296 10.73788 4.81981 -25.73439 14.62864 3.48027 6.95217 65.08970 23.57882 60.76559 0.06984 26.68157 99.99844 19.11281 12.32512 5.20279 18.81627 -27.48557 41.73872 -31.07516 86.09525 54.30584 -19.31918 0.18802 0.16805 -4.22206 12.49449 0.52577 -43.66510 14.21049 23.35763 41.50393 17.17369 -42.37322 53.10078 -0.01614 -0.01745 -78.28214 -35.23379 20.45883 
52.63777 93.45074 3.77544 10.56382 42.12974 127.85346 -25.59744 37.81629 9.23704 0.00695 -0.00401 -0.00524 -10.17460 10.55768 6.64076 -12.01214 12.00926 3.87820 -76.20477 -72.17878 -65.83849 -26.65708 32.18783 -79.01086 11.30534 5.47688 -26.54189 12.30514 4.83216 6.00121 67.46855 21.79506 63.11082 -0.29062 26.71146 100.92118 19.05870 12.29396 4.92149 13.98507 -28.96634 45.21960 51.45820 82.95853 -27.41030 -11.35510 0.12297 0.12147 -0.98031 17.14417 0.02011 -42.92458 14.01982 21.21129 40.59455 16.25074 -42.32671 55.40633 -0.01756 -0.01762 -80.08728 -34.20351 21.26677 
52.26735 93.80950 4.50302 8.79375 41.27866 130.33897 -26.94308 38.20911 9.57833 0.00442 -0.00190 -0.00426 -10.30174 10.64563 6.54306 -15.39850 14.65332 3.50924 -95.98985 -73.43816 -90.34584 -28.18566 36.94986 -79.16638 12.35056 5.79603 -25.91372 10.86540 5.79360 4.95417 69.40210 20.37554 64.56211 -0.65107 26.74060 101.90894 19.04531 12.30045 4.63426 9.30383 -30.26420 48.02435 67.76245 76.59582 -42.51967 -6.66623 0.07020 0.08183 0.29753 19.10144 -0.20193 -42.10274 13.90030 19.14750 39.41515 15.23489 -42.21216 57.50815 -0.01816 -0.01611 -81.59159 -33.07595 22.10497 
51.96239 94.07462 5.15014 7.14702 40.34978 132.66393 -28.13687 38.39436 9.87463 0.00323 -0.00125 -0.00409 -10.46768 10.95083 6.50592 -16.96626 16.26184 3.04797 -115.54004 -71.61372 -112.21336 -29.97726 42.60200 -78.63567 13.63030 5.93340 -24.63579 9.98315 6.45962 3.89137 71.07384 19.12221 65.40331 -0.93025 26.74321 102.84010 19.06367 12.35739 4.37187 4.76395 -31.31753 50.17008 73.28459 70.48668 -46.32001 -5.13919 0.03548 0.04553 1.40078 19.53137 0.05422 -41.15333 13.84193 17.14437 38.04419 14.14994 -42.03288 59.40799 -0.01751 -0.01352 -82.84340 -31.90274 22.91441 
51.71382 94.05732 5.69003 5.55610 38.65165 135.04382 -28.87868 38.36223 9.95569 -0.02240 0.02140 0.00196 -10.56720 11.41573 6.53510 -16.89473 16.83250 2.42311 -126.90338 -67.69655 -123.47782 -30.68467 48.40847 -78.87259 13.51581 2.57111 -17.43337 9.81578 6.64522 2.84758 72.53163 17.81881 65.94913 -0.91726 26.11465 102.15128 17.69914 10.76119 0.19936 0.12158 -31.97708 51.25879 70.24092 63.14938 -42.45120 -3.32488 0.04172 -0.00880 2.06039 19.08621 -4.96899 -39.63038 13.70551 15.07243 36.62910 12.70947 -42.00629 61.17784 -0.01589 -0.01111 -85.12192 -27.39978 17.97711 
51.48901 93.96785 6.05592 4.15495 36.18996 137.34785 -29.13830 38.12016 9.80067 -0.02365 0.02323 -0.00085 -10.66669 12.06382 6.69466 -15.60350 16.54507 1.62233 -133.34453 -63.85200 -128.93350 -31.79760 53.53666 -78.67426 14.10749 1.00867 -12.70684 10.16166 6.39573 1.83929 73.85585 16.51698 66.30421 -0.70997 24.92751 100.03349 17.38894 10.26919 0.01212 -4.41080 -32.29941 51.37981 67.04934 55.65768 -38.68787 -3.05482 0.01214 -0.00272 3.48977 16.88040 -13.07202 -37.57411 13.38943 12.98795 35.30349 10.90262 -42.16744 62.80381 -0.01423 -0.00898 -86.92101 -24.01080 14.73339 
51.27905 93.84499 6.28526 3.02785 33.03451 139.47916 -28.53653 37.43291 9.16396 -0.00010 -0.00126 -0.00483 -11.08828 13.19740 7.08358 -13.75844 15.82667 0.75062 -137.56039 -60.50698 -131.52448 -33.28706 58.04070 -78.04673 14.90955 0.61835 -9.54378 10.62804 6.03720 0.79001 75.08687 15.31221 66.54742 -0.53353 23.25294 96.75259 17.86975 10.45114 2.65990 -8.60177 -32.39408 50.68999 64.49293 48.23934 -35.64012 -3.84865 -0.00024 0.01076 4.53551 12.89482 -22.41451 -34.95254 12.60465 10.68188 34.03719 9.09471 -42.43379 64.30412 -0.01287 -0.00736 -88.54737 -21.41918 12.58928 
51.07867 93.76901 6.37419 2.57407 27.99030 141.06058 -25.75616 35.41249 7.60685 0.00934 -0.00665 -0.01454 -11.60300 14.40835 7.61550 -10.72470 13.92736 -0.57387 -140.13994 -59.42685 -131.25710 -34.58667 60.74010 -77.46077 15.57920 2.61627 -9.83055 12.08516 5.10102 0.05107 75.43729 14.02290 66.37190 -0.08788 22.36985 94.68707 18.79215 11.65234 7.17380 -11.01473 -32.76837 48.33901 61.71367 41.91439 -32.38891 -6.88362 -0.00711 0.04012 4.21380 5.11624 -33.59928 -30.86393 10.57204 8.04191 32.98429 7.46837 -42.86419 65.76015 -0.01096 -0.00525 -90.17958 -20.91094 12.84138 
50.87913 93.76636 6.32806 2.81784 21.52018 141.95796 -21.49474 32.18307 5.81060 0.01128 -0.00744 -0.01601 -12.23920 15.69002 8.26907 -8.23581 12.29465 -1.61204 -141.97249 -59.07667 -130.69418 -35.55612 62.41463 -77.20445 15.69333 2.86187 -8.42035 13.32383 4.35793 -0.66785 75.76009 12.83258 66.49500 0.51859 21.98501 93.44173 18.86214 11.66914 7.80358 -11.31201 -33.33934 45.04726 58.64439 36.69464 -28.91434 -9.09590 -0.00316 0.03250 3.12015 -2.39131 -42.95700 -25.71460 7.33134 5.64875 32.12332 5.94179 -43.44613 67.05273 -0.00750 -0.00522 -91.71835 -19.84724 12.09927 
50.69085 93.82972 6.16559 3.10954 16.02449 142.64502 -18.01149 29.22895 4.45212 0.01263 -0.00752 -0.01661 -13.00712 17.01417 9.03534 -6.27859 10.94445 -2.39080 -143.42987 -59.21196 -130.09607 -36.15083 63.53239 -77.42342 15.90233 4.33993 -8.79310 14.37754 3.82044 -1.36262 75.98928 11.72471 66.74829 1.19388 21.91859 92.87285 19.24888 12.30519 9.80477 -11.00554 -32.83697 41.40228 55.18309 32.56274 -25.10602 -11.69278 -0.00508 0.03820 4.40048 1.40279 -39.42075 -21.50328 4.37696 4.14339 31.42115 4.46049 -44.13613 68.12495 -0.00507 -0.00564 -93.17210 -19.39858 12.02788 
50.53152 93.91795 5.90720 3.41963 11.45535 143.13080 -15.15687 26.60857 3.42060 0.01307 -0.00685 -0.01655 -13.88610 18.34423 9.89234 -4.77797 9.87112 -2.96159 -144.67099 -59.65893 -129.54039 -36.34450 64.34328 -78.09917 15.93659 4.71690 -7.98563 15.25454 3.48157 -1.99852 76.13094 10.65555 67.03654 1.88462 22.03367 92.76214 19.14144 12.19858 9.66723 -9.96907 -31.51414 37.62071 51.25686 29.44726 -20.84520 -13.80518 -0.00022 0.03420 -0.41842 -11.36694 -54.59250 -18.11637 1.86143 3.34944 30.83101 3.01674 -44.88074 68.98219 -0.00358 -0.00600 -94.44075 -18.96611 11.82000 
50.41176 94.00894 5.52539 3.73471 7.75233 143.43295 -12.68223 23.95740 2.40223 0.01137 -0.00129 -0.01406 -15.04360 19.99338 11.09909 -3.78556 9.44703 -3.16403 -145.78656 -60.28743 -129.06268 -36.16344 64.98075 -79.16840 16.05209 5.75050 -8.14316 15.86017 3.76084 -2.49230 76.21552 9.60038 67.31441 2.53993 22.26178 92.97665 19.29889 12.50823 10.46653 -8.25347 -29.57252 33.72988 46.80347 27.24769 -15.99865 -15.63861 0.00465 0.03144 3.27629 -3.71517 -46.20490 -16.12702 0.67118 3.48226 31.06209 0.57055 -45.54070 69.45004 -0.00131 -0.00553 -95.48762 -18.77997 11.86060 
50.33599 94.08305 5.01728 4.05239 4.82716 143.56027 -10.53915 21.35836 1.39278 0.00875 0.00461 -0.01096 -16.44306 21.84047 12.61506 -3.21521 9.57502 -3.05960 -146.79898 -60.99715 -128.66966 -35.65571 65.49502 -80.49952 16.11919 6.09881 -7.52527 16.21275 4.55932 -2.83514 76.28812 8.55787 67.58335 3.11864 22.54982 93.35304 19.12923 12.38729 10.11129 -6.00284 -27.20629 29.64846 41.73256 25.86153 -10.43056 -16.92866 0.01000 0.02309 2.52133 -6.42400 -49.68819 -14.57141 -0.13844 3.94949 31.26505 -1.70476 -46.22408 69.59107 0.00010 -0.00456 -96.24695 -18.67682 11.91247 
50.29902 94.13181 4.39563 4.37436 2.58544 143.52496 -8.69069 18.86707 0.39442 0.00560 0.01033 -0.00772 -18.03812 23.77940 14.39418 -2.98429 10.15570 -2.69630 -147.71475 -61.72252 -128.35513 -34.88179 65.90054 -81.98811 16.20894 6.77996 -7.48392 16.34002 5.78269 -3.02968 76.38870 7.54780 67.84790 3.57479 22.87931 93.81618 19.14918 12.55459 10.38475 -3.34191 -24.57042 25.27485 36.02117 25.06426 -4.05431 -17.54292 0.01587 0.01469 3.59829 -4.37933 -47.57819 -13.39478 -0.56000 4.66496 31.40443 -3.72875 -46.88753 69.50040 0.00056 -0.00371 -96.68982 -18.68470 12.03329 
50.28564 94.15466 3.68707 4.70478 0.93731 143.34241 -7.22777 16.92374 -0.36324 0.00360 0.01147 -0.00668 -19.51238 25.41125 16.04163 -2.86219 10.71031 -2.32347 -148.49149 -62.42149 -128.07402 -33.89890 66.17361 -83.52404 16.27459 7.02616 -7.00410 16.40066 6.91176 -3.16765 76.54130 6.60606 68.11057 3.87647 23.23383 94.31289 18.91079 12.44780 10.06465 -0.39207 -21.80758 20.50076 29.61773 24.62312 3.18670 -17.54683 0.01857 0.00688 3.73638 -5.16104 -48.49276 -12.55462 -0.61849 5.55619 31.47058 -5.44190 -47.50531 69.24654 0.00044 -0.00308 -96.78866 -18.74467 12.16037 
50.26704 94.17072 2.91986 5.04027 -0.19559 143.03246 -6.09740 15.48361 -0.92867 0.00174 0.01213 -0.00587 -20.81325 26.75062 17.52032 -2.80517 11.22331 -1.95041 -149.02419 -63.07865 -127.73026 -32.73120 66.27145 -85.06179 16.30788 7.43207 -6.90513 16.42313 7.94203 -3.24370 76.75144 5.74333 68.36146 4.00905 23.61190 94.83805 18.80330 12.49419 10.15884 2.84180 -19.08958 15.28424 20.15937 23.97094 12.66893 -15.00526 -0.01578 -0.02071 4.40400 -5.07318 -48.60566 -12.02854 -0.37017 6.56094 31.47323 -6.81431 -48.06615 68.85973 0.00011 -0.00270 -96.53105 -18.84900 12.32391 
50.22321 94.19913 2.13060 5.37593 -0.88681 142.61908 -5.26112 14.49937 -1.34315 0.00018 0.01266 -0.00499 -21.90210 27.81821 18.80457 -2.78646 11.68283 -1.58002 -149.24072 -63.68209 -127.25369 -31.43964 66.17613 -86.52918 16.30753 7.56566 -6.56956 16.43569 8.87080 -3.24471 77.01247 4.95435 68.59758 3.98487 24.00445 95.36843 18.51948 12.34177 9.95331 6.19245 -16.51139 9.52904 11.12358 22.21525 22.36137 -12.77708 -0.01499 -0.01476 5.02793 -5.62886 -49.46397 -11.78749 0.10523 7.62559 31.42153 -7.84627 -48.56942 68.32671 -0.00017 -0.00251 -95.89834 -18.95818 12.53546 
